<?xml version="1.0" encoding="utf-8"?>
<!-- Generator: Adobe Illustrator 25.0.1, SVG Export Plug-In . SVG Version: 6.00 Build 0)  -->
<svg version="1.0" id="katman_1" xmlns="http://www.w3.org/2000/svg" xmlns:xlink="http://www.w3.org/1999/xlink" x="0px" y="0px"
	 viewBox="0 0 560 400" style="enable-background:new 0 0 560 400;" xml:space="preserve">
<style type="text/css">
	.st0{fill:#F6BD3A;}
	.st1{fill:#EB8C23;}
	.st2{fill:#E35A2B;}
	.st3{fill:#EF6639;}
	.st4{fill:#A6A7A9;}
</style>
<g transform="matrix(.730548 0 0 .730548 96.632804 15.998772048)">
	<path class="st0" d="M238.8,228.6l32.7-18.9l32.2,18.9l-32.2,18.6l-32.7-18.2V228.6z"/>
	<path class="st0" d="M140.7,172.6l130.8-74.3l97.3,55.3l-32.3,56.1l-65-37.1l-98.1,55.7L140.7,172.6z"/>
	<path class="st1" d="M238.8,302.9v-37l32.2-18.6l32.7-18.6v37.2l-32.2,18.5v37l-32.7,19L238.8,302.9z M238.8,228.6l-32.7-18.5
		l-32.7,18.1v-37.1l98.1-55.7v74.3L238.8,228.6z M336,191.2v-18.6l32.8-19l0.3,37.1l-32.7,19L336,191.2z"/>
	<path class="st2" d="M206.1,320.7V210.1l32.2-18.1l0.4,36.6l32.7,18.3v37.5L238.8,267v73.4L206.1,320.7z M156.8,218.6l-16.1-9.6
		v-36.4l32.7,18.6v37.1L156.8,218.6z M271.5,172.6v-37.1l64.5,37.1l0.4,37.1L271.5,172.6z"/>
	<path class="st3" d="M26.7,379.5v70.8H14.2v-70.8H-10v-12.2h60.9v12.2H26.7z"/>
	<path class="st3" d="M92.1,405.3c1.1,3.7,1.1,8.8,1,9.3l-40.2,12c0.3,3,0.2,1.8,1.2,3.9c1,2.2,2.1,4,3.6,5.4c1.4,1.3,3,2.4,4.8,3.1
		c1.7,0.7,3.6,1,5.4,1c2.6,0,5-0.4,7.2-1.4c2.2-0.9,4.3-2,6.4-3.6l7.3,7.7c-2.8,2.6-5.9,4.6-9.3,6.1c-3.3,1.5-7.4,2.1-12.2,2.1
		c-3.6,0-7.1-0.6-10.4-2.1c-3.3-1.4-6.2-3.6-8.6-6.2c-2.5-2.9-4.4-6.2-5.8-10.2c-1.5-4-2.2-8.6-2.2-13.8c0-5.4,0.6-10.1,2-14.1
		c1.4-4,3.2-7.3,5.6-10.1c2.4-2.7,5.3-4.8,8.6-6.2c3.4-1.5,7.1-2.2,11.1-2.2c4.4,0,8.2,0.9,11.5,2.5c3.3,1.7,6,3.9,8.2,6.8
		C89.5,398.2,91.1,401.4,92.1,405.3z M80.4,408c-0.1-2-1.6-4.6-2.9-6.3c-1.1-1.5-2.7-2.8-4.4-3.4c-1.8-0.7-4.3-1-6.5-0.9
		c-4.1,0.2-8.6,1.5-10.9,4.7c-2.3,3.2-2.9,8.4-2.9,14.1L80.4,408z M137.3,449.7v-35.3c0-6.4-1.2-10.8-3.4-13.3
		c-2.2-2.5-5.4-3.8-9.4-3.8c-4.1,0-7.2,1.4-9.4,4.1c-2.3,2.9-3.3,6.7-3.3,11.8v36.5H99.5v-62.4h12.2v6c1.5-2.3,3.8-4.1,6.6-5.3
		s5.8-1.9,9-1.9c7.3,0,12.8,2.4,16.6,7.1c3.8,4.6,5.7,11.6,5.7,20.9v35.8L137.3,449.7z M199.8,433.3c0,3.4-0.6,6.3-1.9,8.8
		c-1.3,2.2-3.1,4.2-5.2,5.7c-2.2,1.4-4.6,2.4-7.4,3.1c-2.8,0.5-5.7,0.9-8.8,0.9c-4.3,0-8.6-0.9-12.8-2.3c-4.3-1.5-7.9-3.3-11.2-5.7
		l5.6-9.2c2.9,2,6,3.6,9.1,4.6c3.1,1,6.2,1.5,9,1.5c7.6,0,11.4-2.3,11.4-6.9c0-2.3-1.3-4.3-3.8-5.7c-2.6-1.4-6.1-3-10.7-4.7
		c-3.3-1.3-6.1-2.6-8.4-3.9c-2.3-1.2-4.3-2.8-5.7-4.3c-1.4-1.5-2.5-3.1-3.2-5c-0.6-1.8-0.9-4-0.9-6.4c0-2.9,0.5-5.3,1.5-7.3
		c1-2.1,2.5-4,4.4-5.3c1.8-1.5,4.1-2.5,6.7-3.3c2.6-0.7,5.5-1.1,8.6-1.1c3.9,0,7.7,0.7,11.5,1.9c3.6,1.3,6.9,2.9,9.7,5l-5.3,9.3
		c-2.5-1.7-5.1-3.1-7.7-4c-2.6-0.8-5.5-1.2-8.4-1.2c-3,0-5.2,0.5-6.5,1.6c-1.4,1.1-2,2.4-2,4.1c0,0.7,0.1,1.5,0.5,2.1
		c0.3,0.7,0.9,1.5,1.8,2.1c0.8,0.8,2,1.4,3.5,2.3c1.4,0.7,3.4,1.6,5.7,2.6c3.5,1.3,6.6,2.7,9.2,3.8c2.6,1.3,4.8,2.6,6.6,4.2
		c1.8,1.6,3.1,3.5,3.9,5.5C199.4,427.9,199.8,430.4,199.8,433.3L199.8,433.3z M256.6,418.9c0,5.2-0.7,9.8-2.2,13.9
		c-1.4,4.1-3.3,7.5-5.9,10.4c-2.5,2.7-5.5,4.9-8.9,6.3c-3.4,1.4-7.1,2.3-11.2,2.3c-3.9,0-7.6-0.9-10.9-2.4c-3.3-1.5-6.2-3.6-8.7-6.6
		c-2.4-2.8-4.4-6.2-5.7-10.2c-1.4-3.9-2.1-8.3-2.1-13.3c0-5.1,0.7-9.6,2.1-13.7c1.4-4,3.4-7.4,5.9-10.2c2.5-2.8,5.4-5,8.8-6.4
		c3.4-1.5,7-2.2,11-2.2c3.9,0,7.6,0.8,11,2.3c3.3,1.5,6.4,3.8,8.8,6.5c2.5,2.8,4.4,6.2,5.8,10.1C256,409.6,256.6,414.1,256.6,418.9
		L256.6,418.9z M244.3,419.2c0-6.4-1.4-11.4-4.2-15.3c-2.8-3.6-6.7-5.6-11.7-5.6c-4.7,0-8.4,2-11,5.6c-2.7,3.8-4,8.8-4,14.9
		c0,7,1.5,12.1,4.3,15.7c2.8,3.6,6.6,5.5,11.2,5.5c2.3,0,4.4-0.6,6.3-1.7c1.8-1.1,3.5-2.6,4.9-4.4c1.3-2,2.3-4.1,3.1-6.6
		C244,424.8,244.3,422.2,244.3,419.2z M296.1,400.9c-1.4-0.6-2.8-1.2-4.2-1.6c-1.4-0.4-3.2-0.6-5.2-0.6c-3.9,0-6.9,1.3-9,4.1
		c-2.1,2.6-3.2,6.7-3.2,11.9v35.6h-12.2V388h12.2v6c1.4-2.1,3.4-3.8,5.9-5.2c2.5-1.3,5.3-2.1,8.4-2.1c2.5,0,4.6,0.3,6.3,0.7
		c1.6,0.4,3.1,1.1,4.2,1.9L296.1,400.9z"/>
	<path class="st4" d="M316.5,379.5v21.7h23.9v12.2h-23.9v36.8h-12.4v-83h53.6v12.2L316.5,379.5z M359.7,450.3v-80.1l12.2-6.4v86.5
		L359.7,450.3L359.7,450.3z M434.3,418.9c0,5.2-0.6,9.8-2.1,13.9c-1.5,4.1-3.4,7.5-6,10.4c-2.5,2.7-5.5,4.9-8.8,6.3
		c-3.5,1.4-7.1,2.3-11.2,2.3c-4,0-7.7-0.9-10.9-2.4c-3.4-1.5-6.3-3.6-8.7-6.6c-2.4-2.8-4.4-6.2-5.8-10.2c-1.3-3.9-2.1-8.3-2.1-13.3
		c0-5.1,0.8-9.6,2.2-13.7c1.4-4,3.4-7.4,5.9-10.2c2.5-2.8,5.4-5,8.7-6.4c3.5-1.5,7.1-2.2,11.1-2.2c3.9,0,7.6,0.8,11,2.3
		c3.4,1.5,6.5,3.8,8.9,6.5c2.5,2.8,4.4,6.2,5.7,10.1C433.7,409.6,434.3,414.1,434.3,418.9L434.3,418.9z M422,419.2
		c0-6.4-1.5-11.4-4.2-15.3c-2.9-3.6-6.7-5.6-11.7-5.6c-4.7,0-8.4,2-11.1,5.6c-2.6,3.8-3.9,8.8-3.9,14.9c0,7,1.4,12.1,4.4,15.7
		c2.8,3.6,6.6,5.5,11.2,5.5c2.3,0,4.4-0.6,6.2-1.7c1.9-1.1,3.5-2.6,5-4.4c1.3-2,2.3-4.1,3.1-6.6C421.6,424.8,422,422.2,422,419.2z
		 M494.7,450.3h-10.5l-8.4-31.4c-0.7-2.4-1.2-4.8-1.8-7.3c-0.6-2.5-1-4.5-1.5-6c-0.4,2-0.8,4-1.3,6c-0.6,2.5-1.3,5.1-1.8,7.5
		l-8.3,31.3h-10.5l-17-62.3h12.1l7.4,30.3c0.6,2.5,1.1,5,1.7,7.6c0.6,2.6,1,4.6,1.4,6.1l1.5-6.1c0.5-2.5,1.2-5.1,1.8-7.6l8.4-30.3
		h9.7l8.5,30.4c0.6,2.4,1.1,4.9,1.8,7.4c0.6,2.6,1.1,4.6,1.5,6.1c0.4-1.5,0.9-3.6,1.5-6.2c0.5-2.5,1-5,1.6-7.5L500,388H512
		L494.7,450.3z"/>
</g>
</svg>
